<svg xmlns="http://www.w3.org/2000/svg" xmlns:xlink="http://www.w3.org/1999/xlink" width="14.502685546875" height="15" viewBox="0 0 14.502685546875 15" fill="none">
<path d="M6.50552 10.4005C6.50552 10.4005 2.40331 11.0635 1.3674 11.7679C1.3674 11.7679 0.372928 12.3481 0 15L7.91435 15L7.91435 10.7735L6.50552 10.4005Z"   fill="#5D46C1" >
</path>
<path d="M7.99721 10.4005C7.99721 10.4005 12.0994 11.0635 13.1353 11.7679C13.1353 11.7679 14.1298 12.3481 14.5027 15L6.58838 15L6.58838 10.7735L7.99721 10.4005Z"   fill="#5D46C1" >
</path>
<path d="M5.59399 9.44748L5.67687 10.8149C5.67687 10.8149 6.13268 11.7265 7.04427 11.7265C7.54151 11.7265 7.91444 11.2707 8.32881 10.6077L8.32881 9.32318L5.59399 9.44748Z"   fill="#FF8882" >
</path>
<path d="M8.2458 9.07458L5.59386 9.44751L5.51099 10.1934C5.51099 10.1934 7.62424 10.6077 8.3701 9.6547L8.2458 9.07458Z"   fill="#19264C" >
</path>
<path d="M3.8122 5.38674C3.8122 5.38674 2.81772 5.30386 2.98348 6.75414C2.98348 6.75414 3.02491 7.70718 4.268 7.29281L3.8122 5.38674Z"   fill="#F65B59" >
</path>
<path d="M9.94481 5.38672L9.48901 7.25135C10.6492 7.58285 10.7735 6.71269 10.7735 6.71269C10.9393 5.30385 9.94481 5.38672 9.94481 5.38672Z"   fill="#F65B59" >
</path>
<path d="M10.5663 13.5497L12.4724 13.5497L12.4724 14.7928L10.5663 14.7928L10.5663 13.5497Z"   fill="#5D46C1" >
</path>
<path d="M3.72925 5.88397L3.35632 6.46408L3.85355 6.67125L3.72925 5.88397Z"   fill="#CB3539" >
</path>
<path d="M10.0691 6.00827L9.98621 6.58838L10.3591 6.3812L10.0691 6.00827Z"   fill="#CB3539" >
</path>
<path d="M9.77896 2.44475C9.19885 1.61603 7.79 1.45029 6.87841 1.45029C5.88393 1.45029 4.39223 1.74034 3.81212 2.69338C3.31488 3.3978 3.56349 4.80664 3.68781 5.71823C3.93643 8.08012 5.13808 10.0276 6.91984 10.0276C8.70161 10.0276 9.98613 8.08012 10.1519 5.71823C10.1519 4.72377 10.3176 3.19062 9.77896 2.44475Z"   fill="#FF8882" >
</path>
<path d="M7.25135 8.82596L6.50549 8.82596C6.50549 8.82596 6.71268 8.90883 6.91985 8.90883C7.04416 8.90883 7.16847 8.86739 7.25135 8.82596Z"   fill="#FD6F70" >
</path>
<path d="M8.20435 7.04419C8.20435 7.04894 8.2046 7.05369 8.20509 7.05843C8.20559 7.06317 8.20634 7.0679 8.20734 7.07262C8.20834 7.07735 8.20958 7.08206 8.21107 7.08676C8.21257 7.09145 8.21431 7.09612 8.21629 7.10079C8.21828 7.10544 8.22051 7.11007 8.22297 7.11468C8.22545 7.11928 8.22816 7.12385 8.23112 7.12839C8.23406 7.13294 8.23725 7.13744 8.24068 7.14191C8.24411 7.14639 8.24777 7.15081 8.25166 7.15519C8.25555 7.15959 8.25967 7.16392 8.26402 7.16821C8.26837 7.1725 8.27294 7.17674 8.27774 7.18093C8.28253 7.18511 8.28754 7.18924 8.29277 7.19331C8.298 7.19739 8.30344 7.20139 8.30909 7.20534C8.31474 7.20929 8.3206 7.21317 8.32667 7.21698C8.33273 7.2208 8.33898 7.22454 8.34543 7.22821C8.35189 7.23188 8.35853 7.23547 8.36536 7.23899C8.37218 7.24251 8.3792 7.24594 8.38639 7.24929C8.39359 7.25265 8.40096 7.25592 8.40849 7.25912C8.41603 7.2623 8.42373 7.2654 8.43159 7.26841C8.43945 7.27143 8.44746 7.27435 8.45564 7.27717C8.46381 7.28 8.47213 7.28273 8.48058 7.28536C8.48903 7.28801 8.49762 7.29055 8.50635 7.29298C8.51507 7.29543 8.52392 7.29777 8.53289 7.3C8.54187 7.30224 8.55095 7.30437 8.56014 7.3064C8.56934 7.30843 8.57863 7.31036 8.58804 7.31218C8.59743 7.31399 8.60692 7.3157 8.6165 7.3173C8.62607 7.3189 8.63573 7.32038 8.64547 7.32176C8.6552 7.32314 8.665 7.3244 8.67488 7.32556C8.68474 7.32671 8.69466 7.32775 8.70464 7.32868C8.71461 7.3296 8.72463 7.33042 8.73469 7.33112C8.74475 7.33181 8.75485 7.33239 8.76498 7.33285C8.7751 7.33332 8.78524 7.33367 8.7954 7.3339C8.80555 7.33413 8.81572 7.33425 8.8259 7.33425C8.83607 7.33425 8.84624 7.33413 8.8564 7.3339C8.86655 7.33367 8.87669 7.33332 8.88682 7.33285C8.89694 7.33239 8.90703 7.33181 8.9171 7.33112C8.92716 7.33042 8.93717 7.3296 8.94714 7.32868C8.95713 7.32775 8.96705 7.32671 8.97692 7.32556C8.98679 7.3244 8.99658 7.32314 9.00631 7.32176C9.01606 7.32038 9.02571 7.3189 9.03528 7.3173C9.04487 7.3157 9.05435 7.31399 9.06375 7.31218C9.07315 7.31036 9.08245 7.30843 9.09164 7.3064C9.10083 7.30437 9.10992 7.30224 9.11889 7.3C9.12786 7.29777 9.13671 7.29543 9.14544 7.29298C9.15416 7.29055 9.16275 7.28801 9.1712 7.28536C9.17967 7.28273 9.18798 7.28 9.19615 7.27717C9.20432 7.27435 9.21233 7.27143 9.22019 7.26841C9.22806 7.2654 9.23576 7.2623 9.24329 7.25912C9.25083 7.25593 9.25819 7.25266 9.26539 7.24929C9.27259 7.24594 9.2796 7.24251 9.28643 7.23899C9.29325 7.23547 9.2999 7.23188 9.30636 7.22821C9.3128 7.22454 9.31906 7.2208 9.32512 7.21698C9.33118 7.21317 9.33704 7.20929 9.34269 7.20534C9.34834 7.20139 9.35378 7.19739 9.35901 7.19331C9.36424 7.18924 9.36925 7.18511 9.37404 7.18093C9.37885 7.17674 9.38342 7.1725 9.38776 7.16821C9.39211 7.16392 9.39623 7.15959 9.40013 7.15519C9.40402 7.15081 9.40768 7.14639 9.4111 7.14191C9.41453 7.13744 9.41772 7.13294 9.42067 7.12839C9.42362 7.12385 9.42634 7.11928 9.42881 7.11468C9.43129 7.11007 9.43351 7.10544 9.43549 7.10079C9.43748 7.09612 9.43922 7.09145 9.44072 7.08676C9.4422 7.08206 9.44345 7.07735 9.44444 7.07262C9.44544 7.0679 9.44619 7.06317 9.44669 7.05843C9.44719 7.05369 9.44744 7.04894 9.44744 7.04419C9.44744 7.03945 9.44719 7.03471 9.44669 7.02997C9.44619 7.02523 9.44544 7.02049 9.44444 7.01577C9.44345 7.01104 9.4422 7.00633 9.44072 7.00164C9.43922 6.99694 9.43748 6.99226 9.43549 6.98761C9.43351 6.98296 9.43129 6.97833 9.42881 6.97372C9.42634 6.96912 9.42362 6.96454 9.42067 6.96C9.41772 6.95546 9.41453 6.95095 9.4111 6.94648C9.40768 6.94201 9.40402 6.93758 9.40013 6.9332C9.39623 6.92881 9.39211 6.92447 9.38776 6.92018C9.38342 6.91589 9.37885 6.91166 9.37404 6.90746C9.36925 6.90328 9.36424 6.89916 9.35901 6.89508C9.35378 6.89101 9.34834 6.887 9.34269 6.88305C9.33704 6.8791 9.33118 6.87522 9.32512 6.87141C9.31906 6.8676 9.3128 6.86386 9.30636 6.86018C9.2999 6.85652 9.29325 6.85293 9.28643 6.8494C9.2796 6.84589 9.27259 6.84246 9.26539 6.8391C9.25819 6.83574 9.25083 6.83246 9.24329 6.82928C9.23576 6.8261 9.22806 6.823 9.22019 6.81998C9.21233 6.81697 9.20432 6.81405 9.19615 6.81122C9.18798 6.8084 9.17967 6.80566 9.1712 6.80302C9.16275 6.80038 9.15416 6.79785 9.14544 6.79541C9.13671 6.79297 9.12786 6.79063 9.11889 6.78839C9.10992 6.78616 9.10083 6.78402 9.09164 6.782C9.08245 6.77996 9.07315 6.77804 9.06375 6.77622C9.05435 6.7744 9.04487 6.7727 9.03528 6.7711C9.02571 6.7695 9.01606 6.76801 9.00631 6.76664C8.99658 6.76526 8.98679 6.76399 8.97692 6.76283C8.96705 6.76169 8.95713 6.76065 8.94714 6.75972C8.93717 6.75879 8.92716 6.75798 8.9171 6.75728C8.90703 6.75658 8.89694 6.756 8.88682 6.75554C8.87669 6.75507 8.86655 6.75472 8.8564 6.75449C8.84624 6.75427 8.83607 6.75415 8.8259 6.75415C8.81572 6.75415 8.80555 6.75427 8.7954 6.75449C8.78524 6.75472 8.7751 6.75507 8.76498 6.75554C8.75485 6.756 8.74475 6.75658 8.73469 6.75728C8.72463 6.75798 8.71461 6.75879 8.70464 6.75972C8.69466 6.76065 8.68474 6.76169 8.67488 6.76283C8.665 6.76399 8.6552 6.76526 8.64547 6.76664C8.63574 6.76801 8.62608 6.7695 8.6165 6.7711C8.60692 6.7727 8.59743 6.7744 8.58804 6.77622C8.57863 6.77804 8.56934 6.77996 8.56014 6.782C8.55095 6.78402 8.54187 6.78616 8.53289 6.78839C8.52392 6.79063 8.51507 6.79297 8.50635 6.79541C8.49762 6.79785 8.48903 6.80038 8.48058 6.80302C8.47213 6.80566 8.46381 6.8084 8.45564 6.81122C8.44746 6.81405 8.43945 6.81697 8.43159 6.81998C8.42373 6.823 8.41603 6.8261 8.40849 6.82928C8.40096 6.83246 8.39359 6.83574 8.38639 6.8391C8.3792 6.84246 8.37218 6.84589 8.36536 6.8494C8.35853 6.85293 8.35189 6.85652 8.34543 6.86018C8.33898 6.86386 8.33273 6.8676 8.32667 6.87141C8.3206 6.87522 8.31474 6.8791 8.30909 6.88305C8.30344 6.887 8.298 6.89101 8.29277 6.89508C8.28754 6.89916 8.28253 6.90328 8.27774 6.90746C8.27294 6.91166 8.26837 6.91589 8.26402 6.92018C8.25967 6.92447 8.25555 6.92881 8.25166 6.9332C8.24777 6.93758 8.24411 6.94201 8.24068 6.94648C8.23725 6.95095 8.23406 6.95546 8.23112 6.96C8.22816 6.96454 8.22545 6.96912 8.22297 6.97372C8.22051 6.97833 8.21828 6.98296 8.21629 6.98761C8.21431 6.99226 8.21257 6.99694 8.21107 7.00164C8.20958 7.00633 8.20834 7.01104 8.20734 7.01577C8.20634 7.02049 8.20559 7.02523 8.20509 7.02997C8.2046 7.03471 8.20435 7.03945 8.20435 7.04419Z"   fill="#FD6F70" >
</path>
<path d="M4.43372 7.04419C4.43372 7.04894 4.43396 7.05369 4.43445 7.05844C4.43494 7.06318 4.43568 7.06791 4.43668 7.07263C4.43767 7.07736 4.43891 7.08208 4.44039 7.08677C4.44188 7.09147 4.44361 7.09615 4.44559 7.10081C4.44758 7.10547 4.4498 7.1101 4.45227 7.11471C4.45473 7.11932 4.45744 7.12389 4.46038 7.12844C4.46334 7.13299 4.46653 7.1375 4.46995 7.14197C4.47337 7.14644 4.47703 7.15087 4.48091 7.15525C4.4848 7.15964 4.48892 7.16398 4.49326 7.16828C4.49761 7.17257 4.50218 7.17681 4.50697 7.181C4.51177 7.18519 4.51678 7.18933 4.52201 7.1934C4.52724 7.19747 4.53268 7.20148 4.53833 7.20544C4.54398 7.20939 4.54983 7.21327 4.55589 7.21708C4.56195 7.2209 4.5682 7.22464 4.57465 7.22831C4.58111 7.23199 4.58775 7.23558 4.59458 7.23911C4.60141 7.24262 4.60843 7.24606 4.61561 7.24942C4.62281 7.25278 4.63018 7.25605 4.63771 7.25925C4.64525 7.26244 4.65295 7.26555 4.66081 7.26856C4.66868 7.27157 4.6767 7.27449 4.68487 7.27732C4.69305 7.28015 4.70136 7.28289 4.70982 7.28552C4.71828 7.28817 4.72688 7.29071 4.7356 7.29314C4.74433 7.29559 4.75319 7.29793 4.76216 7.30017C4.77113 7.30241 4.78022 7.30455 4.78941 7.30657C4.79861 7.30861 4.80791 7.31054 4.81732 7.31235C4.82672 7.31417 4.83621 7.31588 4.84579 7.31747C4.85537 7.31908 4.86502 7.32057 4.87477 7.32195C4.88451 7.32333 4.89431 7.3246 4.90419 7.32575C4.91406 7.3269 4.92398 7.32794 4.93397 7.32887C4.94394 7.3298 4.95396 7.33061 4.96403 7.33131C4.97409 7.33201 4.98419 7.33258 4.99432 7.33304C5.00445 7.33351 5.01459 7.33387 5.02476 7.33411C5.03492 7.33434 5.04509 7.33445 5.05527 7.33445C5.06545 7.33445 5.07562 7.33434 5.08578 7.33411C5.09594 7.33387 5.10609 7.33351 5.11622 7.33304C5.12634 7.33258 5.13644 7.33201 5.14651 7.33131C5.15657 7.33061 5.16659 7.3298 5.17657 7.32887C5.18656 7.32794 5.19648 7.3269 5.20635 7.32575C5.21622 7.3246 5.22603 7.32333 5.23577 7.32195C5.24551 7.32057 5.25516 7.31908 5.26474 7.31747C5.27433 7.31588 5.28382 7.31417 5.29322 7.31235C5.30262 7.31054 5.31193 7.30861 5.32113 7.30657C5.33032 7.30455 5.33941 7.30241 5.34838 7.30017C5.35735 7.29793 5.36621 7.29559 5.37494 7.29314C5.38366 7.29071 5.39226 7.28817 5.40072 7.28552C5.40918 7.28289 5.41749 7.28015 5.42567 7.27732C5.43384 7.27449 5.44186 7.27157 5.44973 7.26856C5.45758 7.26555 5.46528 7.26244 5.47283 7.25925C5.48036 7.25605 5.48773 7.25278 5.49493 7.24942C5.50211 7.24606 5.50912 7.24262 5.51596 7.23911C5.52279 7.23558 5.52943 7.23199 5.53588 7.22831C5.54233 7.22464 5.54859 7.2209 5.55465 7.21708C5.56071 7.21327 5.56656 7.20939 5.57221 7.20544C5.57786 7.20148 5.5833 7.19747 5.58853 7.1934C5.59376 7.18933 5.59877 7.18519 5.60356 7.181C5.60836 7.17681 5.61292 7.17257 5.61726 7.16828C5.62162 7.16398 5.62574 7.15964 5.62963 7.15525C5.63351 7.15087 5.63717 7.14644 5.64059 7.14197C5.64401 7.13749 5.6472 7.13298 5.65016 7.12844C5.6531 7.12389 5.65581 7.11932 5.65827 7.11471C5.66074 7.1101 5.66296 7.10547 5.66495 7.10081C5.66693 7.09615 5.66866 7.09147 5.67015 7.08677C5.67163 7.08208 5.67287 7.07736 5.67386 7.07263C5.67485 7.06791 5.67559 7.06318 5.67609 7.05844C5.67658 7.05369 5.67682 7.04894 5.67681 7.04419C5.67682 7.03944 5.67658 7.0347 5.67609 7.02995C5.67559 7.02521 5.67485 7.02048 5.67386 7.01575C5.67287 7.01102 5.67163 7.00631 5.67015 7.00161C5.66866 6.99692 5.66693 6.99224 5.66495 6.98758C5.66296 6.98292 5.66074 6.97828 5.65827 6.97368C5.65581 6.96907 5.6531 6.96449 5.65016 6.95995C5.6472 6.9554 5.64401 6.95089 5.64059 6.94642C5.63717 6.94195 5.63351 6.93752 5.62963 6.93314C5.62574 6.92875 5.62162 6.92441 5.61726 6.92011C5.61292 6.91582 5.60836 6.91158 5.60356 6.90739C5.59877 6.90319 5.59376 6.89906 5.58853 6.89499C5.5833 6.89092 5.57786 6.8869 5.57221 6.88295C5.56656 6.879 5.56071 6.87512 5.55465 6.8713C5.54859 6.86749 5.54234 6.86375 5.53589 6.86007C5.52943 6.8564 5.52279 6.8528 5.51596 6.84928C5.50912 6.84577 5.50211 6.84233 5.49493 6.83896C5.48773 6.83561 5.48036 6.83234 5.47283 6.82914C5.46528 6.82595 5.45758 6.82284 5.44971 6.81983C5.44186 6.81681 5.43384 6.8139 5.42567 6.81107C5.41749 6.80824 5.40918 6.8055 5.40072 6.80287C5.39226 6.80022 5.38366 6.79768 5.37494 6.79524C5.36621 6.7928 5.35735 6.79046 5.34838 6.78822C5.33941 6.78598 5.33032 6.78384 5.32113 6.78182C5.31193 6.77978 5.30262 6.77785 5.29322 6.77604C5.28382 6.77422 5.27433 6.77251 5.26474 6.77092C5.25516 6.76931 5.24551 6.76782 5.23577 6.76644C5.22603 6.76506 5.21622 6.76379 5.20635 6.76264C5.19648 6.76149 5.18656 6.76045 5.17657 6.75952C5.16659 6.75859 5.15657 6.75778 5.14651 6.75708C5.13644 6.75638 5.12634 6.7558 5.11622 6.75534C5.10609 6.75487 5.09594 6.75453 5.08578 6.7543C5.07562 6.75406 5.06545 6.75394 5.05527 6.75394C5.04509 6.75394 5.03492 6.75406 5.02476 6.7543C5.01459 6.75453 5.00445 6.75487 4.99432 6.75533C4.98419 6.7558 4.97409 6.75638 4.96403 6.75708C4.95396 6.75778 4.94393 6.75859 4.93395 6.75952C4.92398 6.76045 4.91406 6.76149 4.90419 6.76264C4.89431 6.76379 4.88451 6.76506 4.87477 6.76644C4.86502 6.76782 4.85537 6.76931 4.84579 6.77092C4.83621 6.77251 4.82672 6.77422 4.81732 6.77604C4.80791 6.77785 4.79861 6.77978 4.78941 6.78182C4.78022 6.78384 4.77113 6.78598 4.76216 6.78822C4.75319 6.79046 4.74433 6.7928 4.7356 6.79524C4.72688 6.79768 4.71828 6.80022 4.70982 6.80287C4.70136 6.8055 4.69305 6.80824 4.68487 6.81107C4.6767 6.8139 4.66868 6.81681 4.66081 6.81983C4.65295 6.82284 4.64525 6.82595 4.63771 6.82914C4.63018 6.83234 4.62281 6.83561 4.61561 6.83896C4.60843 6.84233 4.60141 6.84577 4.59458 6.84928C4.58775 6.8528 4.58111 6.8564 4.57465 6.86007C4.5682 6.86375 4.56195 6.86749 4.55589 6.8713C4.54983 6.87512 4.54398 6.879 4.53833 6.88295C4.53268 6.8869 4.52724 6.89092 4.52201 6.89499C4.51678 6.89906 4.51177 6.90319 4.50697 6.90739C4.50218 6.91157 4.49761 6.91581 4.49326 6.92011C4.48892 6.92441 4.4848 6.92875 4.48091 6.93314C4.47703 6.93752 4.47337 6.94195 4.46995 6.94642C4.46653 6.95089 4.46334 6.9554 4.46038 6.95995C4.45744 6.96449 4.45473 6.96907 4.45227 6.97368C4.44979 6.97828 4.44757 6.98292 4.44559 6.98758C4.44361 6.99224 4.44188 6.99692 4.44039 7.00161C4.43891 7.00631 4.43767 7.01102 4.43668 7.01575C4.43568 7.02048 4.43494 7.02521 4.43445 7.02995C4.43396 7.0347 4.43372 7.03944 4.43372 7.04419Z"   fill="#FD6F70" >
</path>
<path d="M5.55246 5.55249C5.42815 5.55249 5.30383 5.75967 5.30383 5.96686C5.30383 6.17404 5.42815 6.38121 5.55246 6.38121C5.67676 6.38121 5.80107 6.17404 5.80107 5.96686C5.80107 5.75967 5.67676 5.55249 5.55246 5.55249Z"   fill="#2F1D3F" >
</path>
<path d="M8.41153 5.55249C8.28722 5.55249 8.20435 5.75967 8.20435 5.96686C8.20435 6.17404 8.28722 6.38121 8.41153 6.38121C8.53584 6.38121 8.61872 6.17404 8.61872 5.96686C8.61872 5.75967 8.53584 5.55249 8.41153 5.55249Z"   fill="#2F1D3F" >
</path>
<path d="M11.2708 1.90607C10.7735 2.23757 10.442 2.07182 10.442 2.07182C11.0222 1.53315 10.7321 0.248618 10.7321 0.248618C10.442 0.787292 9.28183 1.32597 9.28183 1.32597C9.65475 0.828728 9.48901 0 9.48901 0C9.15751 0.745855 7.58294 0.828728 7.58294 0.828728C5.92548 0.870165 4.59952 1.28453 4.59952 1.28453C2.85919 1.74033 3.52217 3.27348 3.52217 3.27348C3.14924 5.67679 4.06084 5.38674 4.06084 5.38674C4.68239 5.3453 4.51665 3.48066 4.51665 3.48066L5.84261 3.72928C7.25144 4.22652 7.91442 3.64641 7.91442 3.64641C9.28183 3.10774 9.11609 3.93646 9.11609 3.93646C8.9089 5.75966 10.0277 5.51104 10.0277 5.51104C10.1934 5.42817 10.1934 3.85359 10.1934 3.85359C11.3536 3.48066 11.2708 1.90607 11.2708 1.90607Z"   fill="#19264C" >
</path>
<path d="M9.65469 4.84805C9.57182 7.33424 8.66021 7.58287 8.66021 7.58287C8.32872 7.12707 7.37569 7.37568 7.37569 7.37568C6.96132 7.66574 6.75413 7.41712 6.75413 7.41712C5.55248 7.12707 5.38673 7.70718 5.38673 7.70718C4.26795 6.96131 4.01933 4.97237 4.01933 4.97237L3.52209 4.97237L4.01933 7.62429C4.35082 11.1878 7.08563 10.6492 7.08563 10.6492C9.48894 10.8978 9.9033 7.91435 9.9033 7.91435C10.1934 6.13259 10.1934 4.97237 10.1934 4.97237L9.65469 4.84805Z"   fill="#19264C" >
</path>
<path d="M6.96135 5.80109L6.83704 7.00275L7.12709 7.00275L6.96135 5.80109Z"   fill="#FD6167" >
</path>
<path d="M5.88403 7.87292C5.9669 8.57733 6.79564 8.70165 6.79564 8.70165C7.79011 8.70165 7.91442 7.87292 7.91442 7.87292L5.88403 7.87292Z"   fill="#FFFFFF" >
</path>
<path d="M8.37008 10.3591L7.00269 11.6436C7.00269 11.6436 8.16289 13.0525 8.37008 13.2182C8.37008 13.2182 9.5303 12.4309 9.82035 10.8978C9.82035 10.9392 9.28169 10.3591 8.37008 10.3591Z"   fill="#4D36B1" >
</path>
<path d="M5.67657 10.4813C4.76497 10.4398 4.22656 11.0213 4.22656 11.0213C4.51662 12.5544 5.67657 13.3413 5.67657 13.3413C5.88375 13.1755 7.04657 11.7713 7.04657 11.7713L5.67657 10.4813Z"   fill="#4D36B1" >
</path>
<path d="M6.91992 13.3011C6.91992 13.3051 6.92001 13.3092 6.92018 13.3133C6.92035 13.3173 6.9206 13.3214 6.92092 13.3254C6.92125 13.3295 6.92167 13.3335 6.92217 13.3376C6.92267 13.3416 6.92325 13.3456 6.9239 13.3496C6.92457 13.3536 6.92532 13.3575 6.92614 13.3615C6.92696 13.3654 6.92787 13.3693 6.92884 13.3732C6.92983 13.3771 6.9309 13.381 6.93203 13.3848C6.93318 13.3887 6.9344 13.3925 6.9357 13.3962C6.937 13.4 6.93837 13.4037 6.93982 13.4074C6.94127 13.411 6.94279 13.4147 6.94439 13.4183C6.94599 13.4219 6.94767 13.4254 6.9494 13.4289C6.95115 13.4324 6.95296 13.4358 6.95484 13.4392C6.95672 13.4426 6.95868 13.4459 6.96071 13.4492C6.96272 13.4524 6.9648 13.4556 6.96695 13.4588C6.96911 13.4619 6.97132 13.465 6.9736 13.468C6.97587 13.4711 6.97821 13.474 6.9806 13.4769C6.98301 13.4797 6.98547 13.4826 6.98797 13.4853C6.99049 13.488 6.99306 13.4907 6.99568 13.4933C6.9983 13.4958 7.00097 13.4983 7.00369 13.5008C7.00642 13.5032 7.00919 13.5055 7.012 13.5078C7.01482 13.51 7.01769 13.5122 7.02059 13.5143C7.02351 13.5164 7.02646 13.5184 7.02944 13.5203C7.03244 13.5223 7.03547 13.5241 7.03853 13.5258C7.0416 13.5276 7.04469 13.5292 7.04783 13.5308C7.05096 13.5323 7.05412 13.5338 7.05731 13.5352C7.0605 13.5365 7.06372 13.5378 7.06696 13.539C7.07021 13.5402 7.07348 13.5413 7.07677 13.5422C7.08005 13.5432 7.08336 13.5441 7.0867 13.5449C7.09002 13.5457 7.09336 13.5464 7.09671 13.547C7.10007 13.5476 7.10343 13.5481 7.1068 13.5485C7.11018 13.5489 7.11356 13.5492 7.11694 13.5494C7.12033 13.5496 7.12372 13.5497 7.12711 13.5497C7.1305 13.5497 7.13389 13.5496 7.13727 13.5494C7.14067 13.5492 7.14405 13.5489 7.14742 13.5485C7.1508 13.5481 7.15416 13.5476 7.15752 13.547C7.16087 13.5464 7.16421 13.5457 7.16753 13.5449C7.17086 13.5441 7.17416 13.5432 7.17746 13.5422C7.18074 13.5413 7.18401 13.5402 7.18725 13.539C7.19049 13.5378 7.19371 13.5365 7.19691 13.5352C7.2001 13.5338 7.20327 13.5323 7.2064 13.5308C7.20953 13.5292 7.21263 13.5276 7.2157 13.5258C7.21876 13.5241 7.22179 13.5223 7.22477 13.5203C7.22776 13.5184 7.23071 13.5164 7.23362 13.5143C7.23653 13.5122 7.2394 13.51 7.24221 13.5078C7.24504 13.5055 7.24781 13.5032 7.25052 13.5008C7.25325 13.4983 7.25592 13.4958 7.25855 13.4933C7.26117 13.4907 7.26374 13.488 7.26624 13.4853C7.26876 13.4826 7.27121 13.4797 7.27361 13.4769C7.276 13.474 7.27834 13.4711 7.28063 13.468C7.28291 13.465 7.28512 13.4619 7.28726 13.4588C7.28942 13.4556 7.2915 13.4524 7.29352 13.4492C7.29554 13.4459 7.29749 13.4426 7.29938 13.4392C7.30126 13.4358 7.30307 13.4324 7.30481 13.4289C7.30656 13.4254 7.30823 13.4219 7.30983 13.4183C7.31142 13.4147 7.31295 13.411 7.31441 13.4074C7.31585 13.4037 7.31723 13.4 7.31853 13.3962C7.31982 13.3925 7.32104 13.3887 7.32218 13.3848C7.32333 13.381 7.32439 13.3771 7.32537 13.3732C7.32636 13.3693 7.32726 13.3654 7.32808 13.3615C7.32891 13.3575 7.32965 13.3536 7.33031 13.3496C7.33098 13.3456 7.33156 13.3416 7.33205 13.3376C7.33254 13.3335 7.33296 13.3295 7.3333 13.3254C7.33363 13.3214 7.33388 13.3173 7.33404 13.3133C7.33421 13.3092 7.33429 13.3051 7.33429 13.3011C7.33429 13.297 7.33421 13.2929 7.33404 13.2889C7.33388 13.2848 7.33363 13.2808 7.3333 13.2767C7.33296 13.2727 7.33254 13.2686 7.33205 13.2646C7.33156 13.2606 7.33098 13.2566 7.33031 13.2526C7.32965 13.2486 7.32891 13.2446 7.32808 13.2407C7.32726 13.2367 7.32636 13.2328 7.32537 13.2289C7.32439 13.225 7.32333 13.2212 7.32218 13.2173C7.32104 13.2135 7.31982 13.2097 7.31853 13.2059C7.31723 13.2022 7.31585 13.1985 7.31441 13.1948C7.31295 13.1911 7.31142 13.1875 7.30983 13.1839C7.30823 13.1803 7.30656 13.1767 7.30481 13.1733C7.30307 13.1698 7.30126 13.1663 7.29938 13.163C7.29749 13.1596 7.29554 13.1562 7.29352 13.153C7.2915 13.1497 7.28942 13.1465 7.28726 13.1434C7.28512 13.1402 7.28291 13.1371 7.28063 13.1341C7.27834 13.1311 7.276 13.1282 7.27361 13.1253C7.27121 13.1224 7.26876 13.1196 7.26624 13.1169C7.26374 13.1141 7.26117 13.1115 7.25855 13.1089C7.25592 13.1063 7.25325 13.1038 7.25052 13.1014C7.24781 13.099 7.24504 13.0966 7.24221 13.0944C7.2394 13.0921 7.23653 13.0899 7.23362 13.0878C7.23071 13.0857 7.22776 13.0837 7.22477 13.0818C7.22179 13.0799 7.21876 13.0781 7.2157 13.0763C7.21263 13.0746 7.20953 13.0729 7.2064 13.0714C7.20327 13.0698 7.2001 13.0684 7.19691 13.067C7.19371 13.0656 7.19049 13.0643 7.18725 13.0632C7.18401 13.062 7.18074 13.0609 7.17746 13.0599C7.17416 13.0589 7.17086 13.058 7.16753 13.0572C7.16421 13.0564 7.16087 13.0557 7.15752 13.0552C7.15416 13.0546 7.1508 13.0541 7.14742 13.0537C7.14405 13.0533 7.14067 13.053 7.13727 13.0528C7.13389 13.0526 7.1305 13.0525 7.12711 13.0525C7.12372 13.0525 7.12033 13.0526 7.11694 13.0528C7.11356 13.053 7.11018 13.0533 7.1068 13.0537C7.10343 13.0541 7.10007 13.0546 7.09671 13.0552C7.09336 13.0557 7.09002 13.0564 7.0867 13.0572C7.08336 13.058 7.08005 13.0589 7.07677 13.0599C7.07348 13.0609 7.07021 13.062 7.06696 13.0632C7.06372 13.0643 7.0605 13.0656 7.05731 13.067C7.05412 13.0684 7.05096 13.0698 7.04783 13.0714C7.04469 13.0729 7.0416 13.0746 7.03853 13.0763C7.03547 13.0781 7.03244 13.0799 7.02944 13.0818C7.02646 13.0837 7.02351 13.0857 7.02059 13.0878C7.01769 13.0899 7.01482 13.0921 7.012 13.0944C7.00919 13.0966 7.00642 13.099 7.00369 13.1014C7.00097 13.1038 6.9983 13.1063 6.99568 13.1089C6.99306 13.1115 6.99049 13.1141 6.98797 13.1169C6.98547 13.1196 6.98301 13.1224 6.9806 13.1253C6.97821 13.1282 6.97587 13.1311 6.9736 13.1341C6.97132 13.1371 6.96911 13.1402 6.96695 13.1434C6.9648 13.1465 6.96272 13.1497 6.96071 13.153C6.95868 13.1562 6.95672 13.1596 6.95484 13.163C6.95296 13.1663 6.95115 13.1698 6.9494 13.1733C6.94766 13.1767 6.94598 13.1803 6.94439 13.1839C6.94279 13.1875 6.94127 13.1911 6.93982 13.1948C6.93837 13.1985 6.937 13.2022 6.9357 13.2059C6.9344 13.2097 6.93318 13.2135 6.93203 13.2173C6.9309 13.2212 6.92983 13.225 6.92884 13.2289C6.92787 13.2328 6.92696 13.2367 6.92614 13.2407C6.92532 13.2446 6.92457 13.2486 6.9239 13.2526C6.92325 13.2566 6.92267 13.2606 6.92217 13.2646C6.92167 13.2686 6.92125 13.2727 6.92092 13.2767C6.9206 13.2808 6.92035 13.2848 6.92018 13.2889C6.92001 13.2929 6.91992 13.297 6.91992 13.3011Z"   fill="#FFFFFF" >
</path>
<path d="M6.91992 14.5027C6.91992 14.5068 6.92001 14.5109 6.92018 14.5149C6.92035 14.519 6.9206 14.5231 6.92092 14.5271C6.92125 14.5312 6.92167 14.5352 6.92217 14.5392C6.92267 14.5432 6.92325 14.5472 6.9239 14.5512C6.92457 14.5552 6.92532 14.5592 6.92614 14.5631C6.92696 14.5671 6.92787 14.571 6.92884 14.5749C6.92983 14.5788 6.9309 14.5827 6.93203 14.5865C6.93318 14.5903 6.9344 14.5941 6.9357 14.5979C6.937 14.6016 6.93837 14.6054 6.93982 14.609C6.94127 14.6127 6.94279 14.6164 6.94439 14.6199C6.94599 14.6235 6.94767 14.6271 6.9494 14.6305C6.95115 14.634 6.95296 14.6375 6.95484 14.6409C6.95672 14.6442 6.95868 14.6476 6.96071 14.6508C6.96272 14.6541 6.9648 14.6573 6.96695 14.6605C6.96911 14.6636 6.97132 14.6667 6.9736 14.6697C6.97587 14.6727 6.97821 14.6757 6.9806 14.6785C6.98301 14.6814 6.98547 14.6842 6.98797 14.6869C6.99049 14.6897 6.99306 14.6923 6.99568 14.6949C6.9983 14.6975 7.00097 14.7 7.00369 14.7024C7.00642 14.7049 7.00919 14.7072 7.012 14.7095C7.01482 14.7117 7.01769 14.7139 7.02059 14.716C7.02351 14.7181 7.02646 14.7201 7.02944 14.722C7.03244 14.7239 7.03547 14.7257 7.03853 14.7275C7.0416 14.7292 7.04469 14.7309 7.04783 14.7324C7.05096 14.734 7.05412 14.7355 7.05731 14.7368C7.0605 14.7382 7.06372 14.7395 7.06696 14.7407C7.07021 14.7418 7.07348 14.7429 7.07677 14.7439C7.08005 14.7449 7.08336 14.7458 7.0867 14.7466C7.09002 14.7474 7.09336 14.7481 7.09671 14.7487C7.10007 14.7493 7.10343 14.7498 7.1068 14.7502C7.11018 14.7506 7.11356 14.7509 7.11694 14.7511C7.12033 14.7513 7.12372 14.7514 7.12711 14.7514C7.1305 14.7514 7.13389 14.7513 7.13727 14.7511C7.14067 14.7509 7.14405 14.7506 7.14742 14.7502C7.1508 14.7498 7.15416 14.7493 7.15752 14.7487C7.16087 14.7481 7.16421 14.7474 7.16753 14.7466C7.17086 14.7458 7.17416 14.7449 7.17746 14.7439C7.18074 14.7429 7.18401 14.7418 7.18725 14.7407C7.19049 14.7395 7.19371 14.7382 7.19691 14.7368C7.2001 14.7355 7.20327 14.734 7.2064 14.7324C7.20953 14.7309 7.21263 14.7292 7.2157 14.7275C7.21876 14.7257 7.22179 14.7239 7.22477 14.722C7.22776 14.7201 7.23071 14.7181 7.23362 14.716C7.23653 14.7139 7.2394 14.7117 7.24221 14.7095C7.24504 14.7072 7.24781 14.7049 7.25052 14.7024C7.25325 14.7 7.25592 14.6975 7.25855 14.6949C7.26117 14.6923 7.26374 14.6897 7.26624 14.6869C7.26876 14.6842 7.27121 14.6814 7.27361 14.6785C7.276 14.6757 7.27834 14.6727 7.28063 14.6697C7.28291 14.6667 7.28512 14.6636 7.28726 14.6605C7.28942 14.6573 7.2915 14.6541 7.29352 14.6508C7.29554 14.6476 7.29749 14.6442 7.29938 14.6409C7.30126 14.6375 7.30307 14.634 7.30481 14.6305C7.30656 14.6271 7.30823 14.6235 7.30983 14.6199C7.31142 14.6164 7.31295 14.6127 7.31441 14.609C7.31585 14.6054 7.31723 14.6016 7.31853 14.5979C7.31982 14.5941 7.32104 14.5903 7.32218 14.5865C7.32333 14.5827 7.32439 14.5788 7.32537 14.5749C7.32636 14.571 7.32726 14.5671 7.32808 14.5631C7.32891 14.5592 7.32965 14.5552 7.33031 14.5512C7.33098 14.5472 7.33156 14.5432 7.33205 14.5392C7.33254 14.5352 7.33296 14.5312 7.3333 14.5271C7.33363 14.5231 7.33388 14.519 7.33404 14.5149C7.33421 14.5109 7.33429 14.5068 7.33429 14.5027C7.33429 14.4987 7.33421 14.4946 7.33404 14.4905C7.33388 14.4865 7.33363 14.4824 7.3333 14.4784C7.33296 14.4743 7.33254 14.4703 7.33205 14.4663C7.33156 14.4622 7.33098 14.4582 7.33031 14.4542C7.32965 14.4502 7.32891 14.4463 7.32808 14.4423C7.32726 14.4384 7.32636 14.4345 7.32537 14.4306C7.32439 14.4267 7.32333 14.4228 7.32218 14.419C7.32104 14.4152 7.31982 14.4114 7.31853 14.4076C7.31723 14.4038 7.31585 14.4001 7.31441 14.3964C7.31295 14.3928 7.31142 14.3891 7.30983 14.3855C7.30823 14.382 7.30656 14.3784 7.30481 14.3749C7.30307 14.3714 7.30126 14.368 7.29938 14.3646C7.29749 14.3612 7.29554 14.3579 7.29352 14.3546C7.2915 14.3514 7.28942 14.3482 7.28726 14.345C7.28512 14.3419 7.28291 14.3388 7.28063 14.3358C7.27834 14.3328 7.276 14.3298 7.27361 14.3269C7.27121 14.3241 7.26876 14.3213 7.26624 14.3185C7.26374 14.3158 7.26117 14.3131 7.25855 14.3106C7.25592 14.308 7.25325 14.3055 7.25052 14.303C7.24781 14.3006 7.24504 14.2983 7.24221 14.296C7.2394 14.2938 7.23653 14.2916 7.23362 14.2895C7.23071 14.2874 7.22776 14.2854 7.22477 14.2835C7.22179 14.2816 7.21876 14.2797 7.2157 14.278C7.21263 14.2762 7.20953 14.2746 7.2064 14.273C7.20327 14.2715 7.2001 14.27 7.19691 14.2687C7.19371 14.2673 7.19049 14.266 7.18725 14.2648C7.18401 14.2636 7.18074 14.2626 7.17746 14.2616C7.17416 14.2606 7.17086 14.2597 7.16753 14.2589C7.16421 14.2581 7.16087 14.2574 7.15752 14.2568C7.15416 14.2562 7.1508 14.2557 7.14742 14.2553C7.14405 14.2549 7.14067 14.2546 7.13727 14.2544C7.13389 14.2542 7.1305 14.2541 7.12711 14.2541C7.12372 14.2541 7.12033 14.2542 7.11694 14.2544C7.11356 14.2546 7.11018 14.2549 7.1068 14.2553C7.10343 14.2557 7.10007 14.2562 7.09671 14.2568C7.09336 14.2574 7.09002 14.2581 7.0867 14.2589C7.08336 14.2597 7.08005 14.2606 7.07677 14.2616C7.07348 14.2626 7.07021 14.2636 7.06696 14.2648C7.06372 14.266 7.0605 14.2673 7.05731 14.2687C7.05412 14.27 7.05096 14.2715 7.04783 14.273C7.04469 14.2746 7.0416 14.2763 7.03853 14.278C7.03547 14.2797 7.03244 14.2816 7.02944 14.2835C7.02646 14.2854 7.02351 14.2874 7.02059 14.2895C7.01769 14.2916 7.01482 14.2938 7.012 14.296C7.00919 14.2983 7.00642 14.3006 7.00369 14.303C7.00097 14.3055 6.9983 14.308 6.99568 14.3105C6.99306 14.3131 6.99049 14.3158 6.98797 14.3185C6.98547 14.3213 6.98301 14.3241 6.9806 14.3269C6.97821 14.3298 6.97587 14.3328 6.9736 14.3358C6.97132 14.3388 6.96911 14.3419 6.96695 14.345C6.9648 14.3482 6.96272 14.3514 6.96071 14.3546C6.95868 14.3579 6.95672 14.3612 6.95484 14.3646C6.95296 14.368 6.95115 14.3714 6.9494 14.3749C6.94766 14.3784 6.94598 14.382 6.94439 14.3855C6.94279 14.3891 6.94127 14.3928 6.93982 14.3964C6.93837 14.4001 6.937 14.4038 6.9357 14.4076C6.9344 14.4114 6.93318 14.4152 6.93203 14.419C6.9309 14.4228 6.92983 14.4267 6.92884 14.4306C6.92787 14.4345 6.92696 14.4384 6.92614 14.4423C6.92532 14.4463 6.92457 14.4502 6.9239 14.4542C6.92325 14.4582 6.92267 14.4622 6.92217 14.4663C6.92167 14.4703 6.92125 14.4743 6.92092 14.4784C6.9206 14.4824 6.92035 14.4865 6.92018 14.4905C6.92001 14.4946 6.91992 14.4987 6.91992 14.5027Z"   fill="#FFFFFF" >
</path>
</svg>
