<svg xmlns="http://www.w3.org/2000/svg" xmlns:xlink="http://www.w3.org/1999/xlink" width="14.40478515625" height="15.000015258789062" viewBox="0 0 14.40478515625 15.000015258789062" fill="none">
<path d="M4.10013 4.50025C4.2547 4.7273 4.53246 5.19105 4.64985 5.61374L9.66796 5.61374C9.69598 5.5292 9.73462 5.43983 9.78873 5.33451C9.92881 5.06158 10.3573 4.44904 10.5414 4.16453C10.7249 3.8795 10.9008 3.47759 10.8346 2.65251C10.7679 1.82889 10.5534 0.363736 10.5534 0.0946751C10.3032 0.0946751 9.61918 0.00867545 9.61918 0.00867545C9.61918 0.00867545 9.29068 1.05211 8.72114 1.74289C8.15113 2.43369 7.35987 3.23559 7.20191 4.93985C6.93235 3.25248 6.28165 2.44964 5.90727 2.03419C5.53289 1.61875 4.80975 0.628457 4.76095 0.00143433L3.83925 0.0835652C3.83925 0.0835652 3.39871 2.70806 3.58564 3.45778C3.66197 3.78532 3.9011 4.208 4.10013 4.50025Z"   fill="#FF5F89" >
</path>
<path d="M14.2596 11.6811C13.9707 11.1183 13.1548 9.31647 10.1858 6.70693C10.0201 6.56782 9.90325 6.47844 9.81871 6.40985L4.59673 6.40985C4.49868 6.5823 4.35859 6.68181 4.27163 6.76972C4.12671 6.91464 1.9988 8.79234 0.131743 11.7453C0.0143488 11.925 -0.0991772 12.2163 0.144787 12.368C0.387761 12.5202 1.15826 12.9989 1.15826 12.9989C1.15826 12.9989 0.648613 13.8129 1.54856 14.024C2.44804 14.2356 3.82382 14.2969 3.82382 14.2969C3.82382 14.2969 3.45669 15.1756 4.77692 14.9684C6.09668 14.7616 8.36613 14.6138 9.82692 14.8669C10.2448 14.9375 10.9911 15.1911 10.9167 14.11C11.5616 14.0872 12.3365 14.0665 12.7389 14.0158C13.1398 13.9665 13.7726 13.9457 13.2871 12.6975C13.9528 12.4801 13.932 12.4922 14.1426 12.4245C14.3523 12.3574 14.5479 12.2439 14.2596 11.6811Z"   fill="#FF3369" >
</path>
<path d="M10.1858 6.70788C10.0201 6.56876 9.90317 6.47939 9.81863 6.4108L4.59665 6.4108C4.4986 6.58324 4.35852 6.68276 4.27155 6.77067C4.12663 6.91559 1.99873 8.79376 0.131673 11.7463C0.0142796 11.9265 -0.0992463 12.2173 0.14375 12.3694C0.386724 12.5216 1.15723 13.0003 1.15723 13.0003C1.15723 13.0003 0.647576 13.8143 1.54753 14.0254C2.447 14.237 3.82278 14.2983 3.82278 14.2983C3.82278 14.2983 3.78751 14.3814 3.77787 14.4896L3.87351 14.4911C7.66994 14.4911 11.0026 12.5008 12.8827 9.50725C12.276 8.73193 11.4166 7.78851 10.1858 6.70788Z"   fill="#FF4D7C" >
</path>
<path d="M9.51003 6.4108L4.59723 6.4108C4.49916 6.58324 4.35907 6.68276 4.27213 6.77067C4.14556 6.89771 2.48959 8.35996 0.824463 10.7125C0.871803 10.714 0.917209 10.714 0.964548 10.714C4.46632 10.714 7.57101 9.02177 9.51003 6.4108Z"   fill="#FF5F89" >
</path>
<path d="M6.5773 2.97955C6.53158 2.89403 6.48325 2.81001 6.4323 2.72752C6.38131 2.64504 6.32781 2.56423 6.27179 2.48509C6.21575 2.40596 6.15728 2.32867 6.0964 2.2532C6.03549 2.17772 5.97228 2.10423 5.9068 2.03273C5.53241 1.61731 4.80925 0.627022 4.76047 0L3.83877 0.0821075C3.83877 0.0821075 3.39821 2.70662 3.58516 3.45635C3.6639 3.78482 3.90156 4.20607 4.10109 4.49978C4.18176 4.61958 4.29769 4.80557 4.40638 5.01665C4.50807 4.94492 4.60849 4.87142 4.70764 4.79618C4.80678 4.72096 4.90458 4.64402 5.00104 4.56538C5.0975 4.48674 5.19256 4.40645 5.28623 4.32448C5.37991 4.24251 5.47212 4.15897 5.56287 4.07379C5.65363 3.98864 5.74288 3.90194 5.83061 3.81365C5.91836 3.72538 6.00453 3.63561 6.08913 3.54435C6.17374 3.45307 6.25674 3.36035 6.33814 3.26621C6.41952 3.17205 6.49922 3.0765 6.5773 2.97955Z"   fill="#FF7196" >
</path>
</svg>
