<svg xmlns="http://www.w3.org/2000/svg" xmlns:xlink="http://www.w3.org/1999/xlink" width="96" height="24.999969482421875" viewBox="0 0 96 24.999969482421875" fill="none">
<path d="M36.0728 20.2014C38.1902 19.3681 39.1873 17.5243 39.1873 17.5243C40.1844 15.6806 40.1844 13.1389 40.1844 13.1389L40.1844 7.95141L36.3195 7.95141L36.3195 5.26392L54.8218 5.26392L54.8218 7.95141L42.857 7.95141L42.857 11.1389L53.4033 11.1389L53.4033 23.2639L47.8115 23.2639L47.8115 20.5556L50.7513 20.5556L50.7513 13.8056L42.857 13.8056C42.7336 17.2847 41.0992 19.7847 41.0992 19.7847C39.4649 22.2847 36.0728 23.3681 36.0728 23.3681L36.0728 20.2014ZM72.8514 4.51392C72.2757 6.34725 71.5151 7.86808 71.5151 7.86808L74.2493 7.86808L74.2493 13.0556L67.5062 13.0556C67.8763 14.1389 68.1024 15.0972 68.1024 15.0972C69.4387 15.6181 70.59 16.4097 70.59 16.4097L72.3785 13.6181L75.3184 13.6181L72.8514 17.4514L71.8851 17.4514C74.2904 19.6389 75.4828 23.2639 75.4828 23.2639L72.543 23.2639C71.4945 19.8889 68.5958 18.4097 68.5958 18.4097C68.7397 20.3264 68.7397 23.2639 68.7397 23.2639L66.0672 23.2639C66.0672 22.1597 66.0466 21.6181 66.0466 21.6181C64.1964 22.1389 61.9864 22.5347 61.9864 22.5347C59.7764 22.9306 56.8777 23.3264 56.8777 23.3264L56.8777 21.1181C61.9966 20.4722 65.9438 19.4097 65.9438 19.4097C65.9233 19.0556 65.841 18.2431 65.841 18.2431C64.1347 18.7431 62.1303 19.1181 62.1303 19.1181C60.1258 19.4931 57.371 19.9097 57.371 19.9097L57.371 17.7014C61.4416 17.1806 65.4915 16.0556 65.4915 16.0556C65.4299 15.7222 65.2654 15.0972 65.2654 15.0972C62.2433 15.9097 57.8233 16.5347 57.8233 16.5347L57.8233 14.3889C61.8939 13.8472 64.6281 13.0556 64.6281 13.0556L58.0084 13.0556L58.0084 10.1806C57.6589 10.3472 56.8777 10.6389 56.8777 10.6389L56.8777 7.99308C59.0568 6.80558 60.1053 4.51392 60.1053 4.51392L72.8514 4.51392ZM64.8131 10.9931L64.8131 9.88891L60.6398 9.88891L60.6398 10.9931L64.8131 10.9931ZM68.5547 7.86808C68.9248 7.20141 69.0687 6.84725 69.0687 6.84725L61.7499 6.84725C61.3593 7.45141 61.0098 7.86808 61.0098 7.86808L68.5547 7.86808ZM71.6179 10.9931L71.6179 9.88891L67.4446 9.88891L67.4446 10.9931L71.6179 10.9931ZM86.1525 17.0556L81.5475 17.0556L80.4579 21.1806L76.8602 21.1806L81.0335 6.59725L86.687 6.59725L90.8604 21.1806L87.2421 21.1806L86.1525 17.0556ZM85.4947 14.5556L83.8706 8.45141L83.8295 8.45141L82.2054 14.5556L85.4947 14.5556ZM92.6078 6.59725L95.9999 6.59725L95.9999 21.1806L92.6078 21.1806L92.6078 6.59725Z" fill-rule="evenodd"  fill="#000000" >
</path>
<path d="M25.319 0.000830734C26.6889 0.0283749 28.6269 0.631593 29.7114 2.64508C31.7962 6.30844 29.956 10.4952 28.0126 13.9107C27.5342 14.7563 26.9879 15.5027 26.4497 16.2381C24.8026 18.4802 23.2424 20.6039 24.0144 25L20.3586 25C20.3586 25 14.0717 16.4475 11.5902 25L8.78512 25C8.21162 20.7829 4.86026 20.6204 3.91982 25L0.247736 25C0.247736 25 -1.75819 13.1064 5.64578 10.4098C5.64578 10.4098 6.31713 12.0266 7.18419 13.4259C8.14638 14.9821 10.6524 16.0563 13.5716 11.608C13.5716 11.608 9.64947 16.0123 7.85827 12.9962C7.32553 12.101 7.12983 11.7842 6.95044 11.4592C6.7493 11.0956 6.56719 10.7183 5.95292 9.50908C5.09401 7.82062 6.08882 7.0907 8.25782 6.36629C10.4268 5.63912 15.2133 4.44646 20.1357 8.04648C25.0554 11.6493 28.9911 6.44892 27.7164 3.92037C27.1755 2.84615 26.3682 2.46053 25.7594 2.38891C25.7228 2.38346 25.6862 2.37876 25.6494 2.3748C25.6127 2.37084 25.5758 2.36761 25.539 2.36511C25.5021 2.36262 25.4652 2.36088 25.4283 2.35991C25.3913 2.3589 25.3544 2.35865 25.3174 2.35913C25.2805 2.35962 25.2436 2.36087 25.2067 2.36288C25.1698 2.36486 25.1329 2.36758 25.0961 2.37105C25.0593 2.3745 25.0226 2.3787 24.986 2.38366C24.9494 2.3886 24.9129 2.39428 24.8765 2.40071C24.8401 2.40713 24.8038 2.41429 24.7677 2.42218C24.7316 2.43005 24.6956 2.43865 24.6598 2.44801C24.6241 2.45733 24.5885 2.46737 24.5531 2.47813C24.5177 2.48892 24.4825 2.5004 24.4476 2.51256C24.4126 2.52476 24.378 2.53764 24.3435 2.55121C24.3091 2.56481 24.2749 2.57909 24.241 2.59403C24.2071 2.60901 24.1736 2.62465 24.1403 2.64094C24.1071 2.65727 24.0742 2.67426 24.0415 2.6919L24.0008 2.71394C23.7996 2.82962 23.3457 3.08578 23.0848 2.6919C22.872 2.32608 22.6835 1.94781 22.5194 1.55708C22.2585 0.926316 23.6393 -0.0322219 25.319 0.000830734ZM19.0403 11.2719C19.0403 11.2719 18.3472 13.2579 20.2798 13.9107C21.7421 14.4009 22.8809 13.222 23.0114 12.6051C20.7282 11.8338 19.0403 11.2719 19.0403 11.2719Z"   fill="url(#linear_fill_7_172)" >
</path>
<defs>
<linearGradient id="linear_fill_7_172" x1="2.585693359375" y1="25.595794677734375" x2="27.551513671875" y2="-0.403228759765625" gradientUnits="userSpaceOnUse">
<stop offset="0.07999999821186066" stop-color="#9945FF"  />
<stop offset="0.30000001192092896" stop-color="#8752F3"  />
<stop offset="0.5" stop-color="#5497D5"  />
<stop offset="0.6000000238418579" stop-color="#43B4CA"  />
<stop offset="0.7200000286102295" stop-color="#28E0B9"  />
<stop offset="0.9700000286102295" stop-color="#19FB9B"  />
</linearGradient>
</defs>
</svg>
