<svg xmlns="http://www.w3.org/2000/svg" xmlns:xlink="http://www.w3.org/1999/xlink" width="11.9949951171875" height="15" viewBox="0 0 11.9949951171875 15" fill="none">
<path d="M0.418527 0L8.26172 0L11.995 3.77511L11.995 14.5815C11.995 14.8126 11.8076 15 11.5765 15L0.418527 15C0.187383 15 0 14.8126 0 14.5815L0 0.418527C0 0.187383 0.187383 0 0.418527 0Z"   fill="#FF7861" >
</path>
<path d="M8.26172 0L8.26172 3.35659C8.26172 3.58773 8.4491 3.77511 8.68025 3.77511L11.995 3.77511L8.26172 0Z"   fill="#FFB0A4" >
</path>
<path d="M8.6401 6.93235C8.77045 7.06566 8.83936 7.25741 8.83936 7.54184C8.83936 7.82626 8.77045 8.01803 8.6401 8.15134C8.50093 8.2937 8.26515 8.39947 7.91686 8.45423L2.74561 8.45423C2.422 8.45423 2.15967 8.71657 2.15967 9.04017L2.15967 11.6685C2.15967 11.9921 2.422 12.2545 2.74561 12.2545C3.06921 12.2545 3.33154 11.9921 3.33154 11.6685L3.33154 9.62611L7.96045 9.62611C7.98821 9.62611 8.01583 9.62415 8.04332 9.62021C9.29495 9.44142 10.0112 8.70875 10.0112 7.54184C10.0112 6.37494 9.29495 5.64227 8.04332 5.46347C8.01583 5.45955 7.98821 5.45758 7.96045 5.45758L2.74561 5.45758C2.422 5.45758 2.15967 5.71991 2.15967 6.04352C2.15967 6.36712 2.422 6.62946 2.74561 6.62946L7.91686 6.62946C8.26515 6.68422 8.50093 6.78999 8.6401 6.93235Z"   fill="#FFFFFF" >
</path>
</svg>
