<svg xmlns="http://www.w3.org/2000/svg" xmlns:xlink="http://www.w3.org/1999/xlink" width="40" height="40" viewBox="0 0 40 40" fill="none">
<circle cx="20" cy="20" r="20"   fill="#306EFF" fill-opacity="0.1">
</circle>
<path d="M28.3637 12.7727C27.9085 12.2825 27.1929 12.0981 26.5094 12.0322C25.7923 11.9634 24.9317 12.0088 24.0068 12.1303C22.1511 12.3732 19.909 12.9367 17.7533 13.6304C15.5975 14.3241 13.4959 15.1597 11.9227 15.9588C11.1397 16.3569 10.4592 16.7608 9.96595 17.1471C9.9066 17.192 9.8487 17.2386 9.79225 17.2871C9.73581 17.3355 9.68093 17.3857 9.62758 17.4376C9.57426 17.4894 9.5226 17.5429 9.47259 17.5979C9.42259 17.653 9.37435 17.7096 9.32786 17.7677C9.16688 17.9784 8.99711 18.2799 9.00004 18.6399C9.00589 19.5883 9.6513 20.2585 10.3391 20.7078C11.0416 21.1674 11.9563 21.5128 12.8652 21.785C13.7828 22.0586 14.7502 22.2709 15.58 22.4435L15.8771 22.505C16.379 22.6075 16.6293 22.6601 16.8664 22.5899C17.1005 22.5182 17.2835 22.3367 17.6464 21.9752L21.2379 18.3838C21.2493 18.3735 21.2611 18.3634 21.273 18.3536C21.2849 18.3438 21.2971 18.3343 21.3096 18.3251C21.3219 18.3159 21.3345 18.307 21.3474 18.2984C21.3602 18.2898 21.3732 18.2815 21.3865 18.2735C21.3997 18.2655 21.4131 18.2579 21.4267 18.2505C21.4402 18.2432 21.454 18.2361 21.4679 18.2295C21.4818 18.2227 21.4959 18.2164 21.5101 18.2104C21.5243 18.2043 21.5387 18.1986 21.5532 18.1933C21.5677 18.1879 21.5823 18.183 21.597 18.1783C21.6117 18.1736 21.6266 18.1693 21.6415 18.1654C21.6564 18.1614 21.6714 18.1579 21.6865 18.1546C21.7016 18.1514 21.7168 18.1485 21.732 18.146C21.7473 18.1434 21.7626 18.1413 21.7779 18.1395C21.7933 18.1377 21.8086 18.1363 21.824 18.1352C21.8395 18.1342 21.8549 18.1335 21.8703 18.1331C21.8858 18.1328 21.9012 18.1328 21.9167 18.1332C21.9321 18.1336 21.9475 18.1344 21.9629 18.1356C21.9783 18.1367 21.9937 18.1382 22.009 18.14C22.0243 18.1419 22.0396 18.1441 22.0549 18.1467C22.0701 18.1493 22.0852 18.1523 22.1003 18.1556C22.1154 18.1589 22.1304 18.1625 22.1453 18.1666C22.1602 18.1706 22.175 18.175 22.1898 18.1797C22.2045 18.1844 22.2191 18.1895 22.2335 18.1949C22.248 18.2003 22.2623 18.2061 22.2765 18.2122C22.2907 18.2182 22.3047 18.2247 22.3186 18.2314C22.3325 18.2382 22.3462 18.2453 22.3598 18.2527C22.3733 18.2601 22.3867 18.2678 22.3999 18.2759C22.413 18.2839 22.426 18.2923 22.4388 18.301C22.4516 18.3096 22.4642 18.3186 22.4765 18.3279C22.4889 18.3371 22.501 18.3467 22.5129 18.3565C22.5248 18.3663 22.5365 18.3765 22.548 18.3868C22.5594 18.3972 22.5705 18.4079 22.5815 18.4188C22.5924 18.4297 22.603 18.4409 22.6134 18.4523C22.6238 18.4638 22.6339 18.4754 22.6438 18.4873C22.6536 18.4992 22.6632 18.5114 22.6724 18.5238C22.6817 18.5361 22.6906 18.5487 22.6993 18.5615C22.708 18.5742 22.7163 18.5872 22.7244 18.6004C22.7324 18.6136 22.7402 18.627 22.7476 18.6405C22.755 18.654 22.7621 18.6678 22.7688 18.6817C22.7756 18.6956 22.782 18.7096 22.7881 18.7238C22.7942 18.738 22.8 18.7523 22.8054 18.7668C22.8108 18.7812 22.8159 18.7958 22.8206 18.8105C22.8253 18.8252 22.8297 18.84 22.8337 18.855C22.8377 18.8699 22.8414 18.8849 22.8447 18.9C22.848 18.915 22.851 18.9302 22.8536 18.9454C22.8561 18.9606 22.8584 18.9759 22.8602 18.9913C22.8621 19.0066 22.8636 19.022 22.8647 19.0374C22.8659 19.0528 22.8666 19.0682 22.867 19.0836C22.8675 19.0991 22.8675 19.1145 22.8672 19.13C22.8668 19.1454 22.8661 19.1608 22.8651 19.1762C22.864 19.1916 22.8626 19.207 22.8608 19.2224C22.859 19.2377 22.8568 19.253 22.8543 19.2682C22.8518 19.2834 22.8489 19.2986 22.8457 19.3137C22.8424 19.3288 22.8388 19.3438 22.8349 19.3588C22.8309 19.3737 22.8266 19.3885 22.822 19.4033C22.8173 19.418 22.8123 19.4326 22.807 19.4471C22.8016 19.4616 22.7959 19.4759 22.7899 19.4902C22.7839 19.5044 22.7775 19.5184 22.7708 19.5324C22.7641 19.5463 22.7571 19.56 22.7498 19.5736C22.7424 19.5872 22.7347 19.6006 22.7267 19.6138C22.7187 19.627 22.7104 19.6401 22.7018 19.6529C22.6932 19.6657 22.6843 19.6783 22.6751 19.6907C22.6659 19.7031 22.6564 19.7153 22.6467 19.7273C22.6369 19.7392 22.6268 19.7509 22.6165 19.7624L19.268 23.1124C18.8977 23.4826 18.7119 23.667 18.6431 23.907C18.5728 24.1471 18.6284 24.4017 18.7426 24.911C19.1802 26.8867 19.5607 28.5185 19.9397 29.6176C20.1593 30.2586 20.4095 30.8148 20.7256 31.2231C21.0535 31.6504 21.5013 31.9739 22.0911 31.9987C22.457 32.0163 22.7643 31.848 22.9721 31.6929C23.1931 31.5289 23.4009 31.3094 23.5926 31.0694C23.979 30.5865 24.3844 29.9191 24.7883 29.1464C25.6006 27.5951 26.4596 25.5154 27.1885 23.3758C27.9144 21.2362 28.5203 19.0058 28.813 17.1515C28.9578 16.2266 29.0296 15.3675 28.9886 14.649C28.952 13.9655 28.8071 13.2498 28.3637 12.7727Z"   fill="#306EFF" >
</path>
</svg>
