<svg xmlns="http://www.w3.org/2000/svg" xmlns:xlink="http://www.w3.org/1999/xlink" width="14.76220703125" height="15" viewBox="0 0 14.76220703125 15" fill="none">
<path d="M13.2635 4.86121C13.2925 4.86406 13.3215 4.86589 13.3507 4.86669C13.3798 4.86748 13.4089 4.86724 13.438 4.866C13.4671 4.86474 13.4962 4.86246 13.5251 4.85914C13.5541 4.85584 13.5829 4.85152 13.6116 4.84618C14.3947 4.69908 14.8958 3.83812 14.7308 2.9229C14.5657 2.00473 13.8005 1.38074 13.0173 1.52784C12.8644 1.55463 12.7232 1.61184 12.5944 1.68963C11.8981 0.76558 10.7881 0.21056 9.60877 0.114135L9.60289 0.114135C8.09669 -0.266664 6.65326 0.336404 6.38031 1.46181C6.37706 1.47063 6.37706 1.47651 6.37443 1.48566C5.97533 2.05278 5.73214 2.78495 5.69031 3.65508C5.57035 3.63121 5.4713 3.56812 5.42031 3.49C5.39318 3.6129 5.5102 3.74823 5.6841 3.79922C5.6841 3.844 5.68116 3.88616 5.68116 3.93094C5.68116 4.02999 5.68441 4.12608 5.69031 4.22513C5.62428 4.5193 5.42914 4.61214 4.54693 4.91809C4.26483 4.96614 4.61296 5.37733 4.92511 5.64144C5.20719 5.88136 4.92511 6.02845 4.83195 6.17259C4.73619 6.31642 4.82019 6.52953 4.97315 6.60732C5.16208 6.70343 4.83195 6.70343 4.83195 6.99466C4.83195 7.28264 5.21013 7.13848 5.06926 7.62192C4.95812 8.00272 4.97609 8.58486 5.58832 8.53714C6.20316 8.48877 6.6745 8.24885 7.05269 8.44105C7.48742 8.66298 9.08383 11.4325 8.7988 12.3955C8.51672 13.3587 7.52369 13.0708 7.05236 15L13.9476 15C13.9476 15 13.3324 12.9747 12.0125 11.5763C11.1241 10.6373 10.7133 9.75798 10.6142 8.76497C11.9462 8.15274 12.9846 6.53574 13.2635 4.86121Z"   fill="#7B61FF" >
</path>
<path d="M7.26838 12.9655C7.01016 12.4497 6.6506 11.8525 6.17633 11.3514C5.45331 10.5863 5.11728 9.87205 5.03622 9.06208C4.7512 9.03201 4.51095 8.89996 4.34883 8.68391C4.05791 8.29688 4.12688 7.79875 4.18996 7.5438C4.1805 7.53511 4.17127 7.52618 4.1623 7.51702C4.1533 7.50783 4.14457 7.49844 4.13607 7.48883C4.12758 7.47919 4.11935 7.46935 4.11136 7.4593C4.10338 7.44923 4.09569 7.43897 4.08825 7.4285C4.0808 7.41803 4.07365 7.40738 4.06678 7.39655C4.05991 7.3857 4.05332 7.37469 4.04702 7.36349C4.04072 7.3523 4.03473 7.34096 4.02903 7.32947C4.02333 7.31795 4.01793 7.3063 4.01284 7.29453C4.00776 7.28274 4.00299 7.27082 3.99853 7.25879C3.99406 7.24674 3.98992 7.23459 3.98611 7.22233C3.98228 7.21008 3.97879 7.19773 3.97562 7.18529C3.97244 7.17284 3.96961 7.16033 3.96708 7.14776C3.96456 7.13515 3.96239 7.12251 3.96054 7.10981C3.95868 7.09709 3.95718 7.08436 3.95601 7.07157C3.95483 7.05879 3.95399 7.04598 3.95349 7.03315C3.95298 7.02032 3.9528 7.0075 3.95298 6.99465C3.95298 6.88026 3.97391 6.78154 4.00692 6.69754C3.97997 6.64245 3.95796 6.58546 3.94089 6.52659C3.93715 6.51313 3.93378 6.4996 3.93076 6.48598C3.92773 6.47234 3.92508 6.45864 3.92278 6.44488C3.92049 6.43111 3.91857 6.41729 3.91701 6.40343C3.91545 6.38955 3.91425 6.37565 3.91344 6.36172C3.9126 6.34779 3.91215 6.33385 3.91207 6.3199C3.91198 6.30593 3.91227 6.29198 3.91293 6.27804C3.91359 6.26409 3.91461 6.25018 3.916 6.2363C3.91738 6.22241 3.91915 6.20856 3.92128 6.19477C3.92341 6.18097 3.9259 6.16724 3.92875 6.15359C3.9316 6.13993 3.93481 6.12635 3.9384 6.11286C3.94197 6.09936 3.9459 6.08598 3.95019 6.0727C3.95447 6.05941 3.9591 6.04625 3.96408 6.03323C3.96907 6.02017 3.97439 6.00729 3.98006 5.99453C3.98572 5.98178 3.99172 5.96918 3.99807 5.95674C4.0044 5.94431 4.01104 5.93205 4.01803 5.91997C4.02501 5.90788 4.03232 5.89598 4.03994 5.8843C4.04321 5.88135 4.04321 5.87841 4.04582 5.87547C3.464 5.30836 3.55388 4.97235 3.5869 4.85533C3.64672 4.63305 3.81799 4.47126 4.05203 4.41405C4.28901 4.33005 4.66981 4.19504 4.80513 4.11399L4.80513 4.09928C4.59494 3.9133 4.49297 3.64625 4.55312 3.37624C4.58906 3.2053 4.71197 3.0641 4.8741 2.99807C4.89615 2.85924 4.92445 2.72169 4.95901 2.58544C4.99356 2.44918 5.03422 2.31478 5.081 2.18221C5.01067 2.15824 4.93967 2.13642 4.86804 2.11676C4.79638 2.09709 4.72419 2.07961 4.65149 2.06432C4.57877 2.04902 4.50566 2.03594 4.43218 2.02507C4.35867 2.0142 4.2849 2.00557 4.21088 1.99916L4.20762 1.99916C2.97762 1.68995 1.80156 2.18221 1.57961 3.09743C1.57634 3.10331 1.57634 3.10919 1.57634 3.11835C1.25241 3.58022 1.05434 4.1774 1.01838 4.88866C0.919338 4.87069 0.838603 4.81969 0.799379 4.75367C0.778459 4.85564 0.87129 4.96351 1.01511 5.00535C1.01511 5.04131 1.0125 5.07759 1.0125 5.11355C1.0125 5.19461 1.01544 5.27273 1.01838 5.35346C0.964447 5.59371 0.805263 5.66856 0.085178 5.92057C-0.145915 5.9598 0.139111 6.29288 0.394394 6.51187C0.625159 6.70995 0.394394 6.82697 0.315945 6.94399C0.238152 7.06101 0.30712 7.23491 0.430349 7.29799C0.583322 7.37611 0.315945 7.37611 0.315945 7.61309C0.315945 7.85006 0.625159 7.7301 0.508142 8.123C0.415312 8.43515 0.430349 8.90911 0.931434 8.87021C1.43252 8.83099 1.81659 8.63324 2.12548 8.79209C2.47948 8.9722 3.78171 11.2315 3.55061 12.0179C3.31984 12.804 2.50955 12.57 2.12548 14.1422L6.41919 14.1422C6.67741 13.545 6.9863 13.2061 7.26838 12.9658L7.26838 12.9655Z"   fill="#FF67F9" >
</path>
</svg>
