<svg xmlns="http://www.w3.org/2000/svg" xmlns:xlink="http://www.w3.org/1999/xlink" width="52" height="30" viewBox="0 0 52 30" fill="none">
<path   fill="rgba(26, 26, 26, 1)"  d="M15 0L37 0C45.2843 0 52 6.71573 52 15C52 23.2843 45.2843 30 37 30L15 30C6.71573 30 0 23.2843 0 15Q0 8.7868 4.3934 4.3934Q8.78679 1.90735e-06 15 9.53674e-07L15 0ZM15 2Q9.61522 2 5.80761 5.80761Q2 9.61523 2 15C2 22.1797 7.8203 28 15 28L37 28C44.1797 28 50 22.1797 50 15C50 7.8203 44.1797 2 37 2L15 2L15 2Z">
</path>
<path d="M25.346 14.346L25.346 9.15398C25.346 8.51687 25.8629 8 26.5 8C27.1371 8 27.654 8.51687 27.654 9.15398L27.654 14.346L32.846 14.346C33.4831 14.346 34 14.8629 34 15.5C34 16.1371 33.4831 16.654 32.846 16.654L27.654 16.654L27.654 21.846C27.654 22.4831 27.1371 23 26.5 23C25.8629 23 25.346 22.4831 25.346 21.846L25.346 16.654L20.154 16.654C19.5169 16.654 19 16.1371 19 15.5C19 14.8629 19.5169 14.346 20.154 14.346L25.346 14.346Z"   fill="#1A1A1A" >
</path>
</svg>
