<svg xmlns="http://www.w3.org/2000/svg" width="96" height="25" fill="none"><path fill="#000" fill-rule="evenodd" d="M36.073 20.201c2.117-.833 3.114-2.677 3.114-2.677.997-1.843.997-4.385.997-4.385V7.95H36.32V5.264h18.502V7.95H42.857v3.188h10.546v12.125h-5.591v-2.708h2.94v-6.75h-7.895c-.123 3.479-1.758 5.979-1.758 5.979-1.634 2.5-5.026 3.583-5.026 3.583zM72.85 4.514c-.575 1.833-1.336 3.354-1.336 3.354h2.734v5.188h-6.743c.37 1.083.596 2.041.596 2.041a14 14 0 0 1 2.488 1.313l1.788-2.792h2.94l-2.467 3.833h-.966c2.405 2.188 3.598 5.813 3.598 5.813h-2.94c-1.049-3.375-3.947-4.854-3.947-4.854.144 1.916.144 4.854.144 4.854h-2.673c0-1.104-.02-1.646-.02-1.646-1.85.52-4.06.917-4.06.917-2.21.396-5.11.791-5.11.791v-2.208c5.12-.646 9.067-1.708 9.067-1.708-.02-.354-.103-1.167-.103-1.167-1.706.5-3.71.875-3.71.875-2.005.375-4.76.792-4.76.792V17.7c4.07-.52 8.12-1.645 8.12-1.645-.061-.334-.226-.959-.226-.959-3.022.813-7.442 1.438-7.442 1.438v-2.146c4.07-.542 6.805-1.333 6.805-1.333h-6.62V10.18c-.35.166-1.13.458-1.13.458V7.993c2.179-1.187 3.227-3.48 3.227-3.48zm-8.038 6.48V9.888H60.64v1.104zm3.742-3.126c.37-.667.514-1.02.514-1.02h-7.32c-.39.603-.74 1.02-.74 1.02zm3.063 3.125V9.89h-4.173v1.104zm14.535 6.063h-4.606l-1.09 4.125H76.86l4.174-14.584h5.653l4.173 14.584h-3.618zm-.658-2.5L83.87 8.45h-.041l-1.625 6.105zm7.113-7.959H96v14.584h-3.392z"/><path fill="url(#a)" d="M25.319 0c1.37.028 3.308.632 4.392 2.645 2.085 3.663.245 7.85-1.698 11.266-.479.845-1.025 1.592-1.563 2.327-1.647 2.242-3.208 4.366-2.436 8.762H20.36s-6.287-8.552-8.769 0H8.785c-.573-4.217-3.925-4.38-4.865 0H.248s-2.006-11.894 5.398-14.59c0 0 .671 1.617 1.538 3.016.962 1.556 3.468 2.63 6.388-1.818 0 0-3.923 4.404-5.714 1.388-.532-.895-.728-1.212-.908-1.537-.2-.363-.383-.74-.997-1.95-.859-1.688.136-2.418 2.305-3.143 2.169-.727 6.955-1.92 11.878 1.68 4.92 3.603 8.855-1.597 7.58-4.126-.54-1.074-1.348-1.46-1.957-1.531a2.7 2.7 0 0 0-1.206.09 3 3 0 0 0-.512.213l-.04.022c-.201.116-.655.372-.916-.022a10 10 0 0 1-.566-1.135c-.26-.63 1.12-1.59 2.8-1.556M19.04 11.273s-.693 1.986 1.24 2.639c1.462.49 2.6-.689 2.731-1.306-2.283-.771-3.97-1.333-3.97-1.333"/><defs><linearGradient id="a" x1="2.586" x2="27.552" y1="25.596" y2="-.403" gradientUnits="userSpaceOnUse"><stop offset=".08" stop-color="#9945FF"/><stop offset=".3" stop-color="#8752F3"/><stop offset=".5" stop-color="#5497D5"/><stop offset=".6" stop-color="#43B4CA"/><stop offset=".72" stop-color="#28E0B9"/><stop offset=".97" stop-color="#19FB9B"/></linearGradient></defs></svg>