<svg xmlns="http://www.w3.org/2000/svg" xmlns:xlink="http://www.w3.org/1999/xlink" width="21.91748046875" height="22" viewBox="0 0 21.91748046875 22" fill="none">
<path d="M20.8443 16.7579L18.4503 16.7579L18.4503 14.364C18.4503 13.8274 18.0375 13.4146 17.5009 13.4146C16.9643 13.4146 16.5516 13.8274 16.5516 14.364L16.5516 16.7579L14.1576 16.7579C13.621 16.7579 13.2082 17.1707 13.2082 17.7073C13.2082 18.2439 13.621 18.6566 14.1576 18.6566L16.5516 18.6566L16.5516 21.0506C16.5516 21.5872 16.9643 22 17.5009 22C18.0375 22 18.4503 21.5872 18.4503 21.0506L18.4503 18.6566L20.8443 18.6566C21.3808 18.6566 21.7936 18.2439 21.7936 17.7073C21.7936 17.1707 21.3396 16.7579 20.8443 16.7579ZM10.8968 15.0244C11.3095 14.2401 12.1351 13.7035 13.1257 13.7035L14.1576 13.7035L14.1576 12.6716C14.1576 11.6397 14.7767 10.7317 15.6848 10.3602L15.6848 10.3189L14.4052 6.39772L9.82361 12.2176L8.62662 10.1538L3.83862 15.0244L10.8968 15.0244ZM8.62662 6.85176C8.62662 6.06752 8.00748 5.4071 7.18196 5.4071C6.39772 5.4071 5.73731 6.06752 5.73731 6.85176C5.73731 7.636 6.39772 8.29641 7.18196 8.29641C8.00748 8.29641 8.62662 7.636 8.62662 6.85176Z"   fill="#1D1E22" >
</path>
<path     fill="#1D1E22"  d="M13.2908 20.3077L3.9212 20.3077C2.64165 20.3077 1.56848 19.2758 1.56848 17.955L1.56848 3.9212C1.56848 2.64165 2.60037 1.56848 3.9212 1.56848L17.955 1.56848C19.2345 1.56848 20.3077 2.60038 20.3077 3.9212L20.3077 12.9193L21.9174 12.9193L21.9174 2.7242C21.9174 1.197 20.6792 0 19.1932 0L2.7242 0C1.197 0 0 1.23827 0 2.7242L0 19.152C0 20.6792 1.23827 21.8762 2.7242 21.8762L13.2908 21.8762">
</path>
</svg>
