<svg xmlns="http://www.w3.org/2000/svg" width="173" height="35" fill="none"><rect width="30" height="30" y="3" fill="#000" rx="15"/><path fill="url(#a)" d="M16.018 14.641a2.43 2.43 0 0 0 .268.137c.354.16 1.098.441 1.482.593.108.044.195.072.303.116q.153.063.304.116c.195.072.39.151.593.224l1.512.57c.267.095.658.21.846.398.173.181.173.29.238.593.152.766.34 2.053.449 2.863l.159 1.091c.014.109.043.253.05.362.066-.03.13-.058.196-.094l.347-.246c.499-.405.868-1.034 1.07-1.648a3.4 3.4 0 0 0 .166-.962v-.289a3.6 3.6 0 0 0-.332-1.395c-.116-.239-.405-.68-.579-.86l-.173-.188c-.326-.296-.427-.369-.854-.578-.08-.044-.151-.087-.238-.123l-.752-.326c-.167-.072-.333-.13-.507-.202-.08-.029-.159-.065-.245-.094l-2.597-.998a1 1 0 0 0-.267-.086h-.037c-.1.007-.195.072-.383.216-.08.058-.962.73-1.02.81"/><path fill="url(#b)" d="M18.1 16.343c.013.05.02.086.035.137.015.05.036.094.058.145.13.36.456 1.091.622 1.467.05.101.094.188.137.296.044.102.087.195.13.297.095.195.167.383.26.578l.674 1.475c.115.253.31.614.31.875 0 .253-.08.332-.253.592-.434.65-1.215 1.692-1.7 2.335l-.664.89c-.066.086-.152.209-.225.288.073.022.138.051.21.066l.42.08c.636.064 1.345-.124 1.923-.413q.436-.23.796-.557l.202-.202c.326-.354.586-.773.752-1.229.094-.246.196-.766.203-1.012l.007-.26c-.022-.434-.036-.557-.188-1.012-.029-.087-.05-.174-.087-.253l-.303-.76c-.073-.173-.138-.332-.21-.498l-.109-.246-1.128-2.537c-.05-.123-.08-.203-.13-.253l-.029-.03c-.072-.064-.188-.086-.42-.115-.1-.014-1.207-.166-1.294-.144"/><path fill="url(#c)" d="M18.361 19.019c-.021.043-.043.072-.065.123-.029.043-.043.094-.065.145-.166.347-.448 1.091-.593 1.481-.043.102-.072.196-.116.297-.043.108-.08.202-.115.303-.073.203-.152.39-.232.593l-.564 1.518c-.094.26-.217.658-.398.839-.18.18-.289.18-.6.238-.76.16-2.054.34-2.856.456l-1.1.152c-.108.014-.253.043-.361.057l.101.188.246.355c.398.498 1.034.86 1.649 1.062.31.101.636.16.962.174h.282a3.8 3.8 0 0 0 1.403-.34c.238-.108.672-.398.853-.578l.188-.174c.297-.318.369-.42.586-.846.043-.086.087-.159.123-.245l.318-.745c.072-.173.137-.332.202-.506.037-.08.066-.166.102-.253l.99-2.588c.051-.116.087-.195.095-.267v-.036c-.008-.102-.073-.203-.218-.384-.065-.08-.737-.968-.817-1.019"/><path fill="url(#d)" d="M16.66 21.096c-.05.014-.093.021-.144.043-.043.014-.094.036-.144.05-.362.13-1.085.463-1.469.63-.1.043-.187.086-.289.13-.108.043-.202.086-.296.13-.195.094-.39.173-.579.267l-1.475.665c-.253.116-.615.311-.875.311s-.333-.072-.593-.246c-.651-.434-1.692-1.214-2.343-1.706l-.882-.665c-.087-.065-.21-.144-.297-.217-.022.073-.05.13-.065.203l-.072.426c-.073.636.115 1.338.412 1.916q.218.444.557.802l.202.203a3.8 3.8 0 0 0 1.23.752c.245.086.759.188 1.012.195l.253.007c.441-.015.564-.036 1.013-.188.094-.029.173-.05.26-.087l.752-.296c.174-.072.333-.145.506-.217.08-.029.16-.072.246-.108l2.539-1.128a.8.8 0 0 0 .253-.13l.021-.022c.065-.072.087-.188.116-.42.014-.108.166-1.207.152-1.3"/><path fill="url(#e)" d="M13.984 21.363c-.05-.029-.08-.05-.13-.072a1 1 0 0 0-.145-.065c-.347-.16-1.092-.441-1.475-.593-.109-.043-.195-.072-.304-.116q-.151-.063-.304-.116c-.202-.072-.39-.151-.593-.224l-1.518-.57c-.26-.095-.651-.21-.84-.398-.18-.181-.173-.29-.238-.593-.152-.766-.34-2.053-.448-2.863l-.16-1.091c-.014-.109-.043-.253-.05-.362-.065.03-.13.058-.195.094l-.347.246c-.5.405-.868 1.034-1.07 1.648-.102.318-.16.636-.167.962v.289c.014.477.13.954.333 1.395.115.239.405.68.578.86l.174.188c.325.297.426.369.853.579.08.043.152.086.239.122l.752.326c.166.072.333.13.499.202.087.03.166.065.253.094l2.596.998a1 1 0 0 0 .268.087h.036c.101-.008.195-.073.376-.217.087-.065.969-.73 1.027-.81"/><path fill="url(#f)" d="M11.9 19.654c-.014-.05-.02-.086-.035-.137-.015-.05-.037-.094-.058-.145-.13-.361-.463-1.091-.63-1.467-.043-.108-.086-.188-.13-.296-.043-.102-.086-.196-.13-.297-.094-.195-.173-.383-.26-.578l-.673-1.475c-.115-.253-.31-.614-.31-.875 0-.252.079-.332.253-.592.426-.65 1.215-1.692 1.699-2.335l.665-.89c.066-.086.152-.209.225-.289-.073-.021-.138-.05-.21-.065l-.42-.08c-.636-.064-1.345.124-1.923.413q-.436.23-.796.556l-.202.203a3.6 3.6 0 0 0-.752 1.229 4.2 4.2 0 0 0-.203 1.012l-.007.26c.022.434.036.557.188 1.012.029.087.05.174.087.253l.303.76c.073.173.138.332.21.498l.109.246 1.128 2.537c.05.123.08.203.13.253l.029.03c.072.064.188.086.42.115.1.014 1.207.166 1.294.144"/><path fill="url(#g)" d="M11.642 16.981c.021-.043.043-.08.065-.123.021-.043.043-.094.065-.144.166-.347.448-1.092.593-1.482.043-.101.072-.195.115-.297.044-.108.08-.202.116-.303.072-.203.152-.39.224-.593l.572-1.518c.094-.26.217-.658.397-.839s.29-.18.593-.238c.767-.16 2.062-.34 2.864-.456l1.1-.152c.108-.014.253-.043.361-.057l-.101-.188-.246-.354c-.398-.5-1.034-.86-1.649-1.063A3.6 3.6 0 0 0 15.749 9h-.282a3.8 3.8 0 0 0-1.403.34 3.9 3.9 0 0 0-.853.578l-.188.174c-.297.318-.369.42-.586.846-.043.086-.087.159-.123.245l-.318.745c-.072.174-.138.333-.203.506-.036.08-.065.166-.1.253l-.999 2.588a1 1 0 0 0-.087.268v.036c.008.1.073.202.217.383.066.08.738.968.818 1.02"/><path fill="url(#h)" d="M13.34 14.906c.05-.015.094-.022.137-.044.05-.014.101-.036.152-.05.362-.13 1.085-.463 1.46-.63.11-.043.196-.086.297-.13a3 3 0 0 0 .297-.137c.195-.086.383-.166.579-.26l1.475-.665c.253-.116.615-.31.875-.31s.333.071.593.245c.65.434 1.692 1.214 2.343 1.706l.882.665c.087.065.21.145.297.217.021-.072.043-.13.065-.203l.072-.426c.072-.636-.116-1.337-.412-1.916a3.3 3.3 0 0 0-.557-.802l-.203-.203a3.8 3.8 0 0 0-1.229-.751 4.5 4.5 0 0 0-1.012-.195l-.253-.015c-.442.022-.564.043-1.013.195-.094.03-.173.05-.26.087l-.76.296c-.166.073-.325.145-.498.217-.08.03-.16.072-.246.109l-2.539 1.127a.8.8 0 0 0-.253.13l-.022.022c-.065.072-.094.188-.115.42-.015.108-.167 1.207-.152 1.3"/><path fill="#000" d="M38.68 9.144c1.248 1.272 2.784 3.072 3.456 4.248l2.4-1.848c-.768-1.128-2.352-2.808-3.6-4.008zM49.792 7.68a188 188 0 0 1-.096 3.768H45.16v2.784h4.32c-.432 3.888-1.632 7.296-5.088 9.624.744.504 1.632 1.44 2.04 2.136 4.056-2.856 5.496-7.032 6.072-11.76h3.96c-.168 5.496-.408 7.824-.912 8.376-.264.264-.528.336-.96.336-.6 0-1.872 0-3.216-.12.552.816.96 2.088 1.008 2.952 1.368.048 2.736.048 3.552-.072.96-.12 1.608-.384 2.232-1.2.816-1.032 1.056-4.008 1.272-11.808.024-.384.024-1.248.024-1.248h-6.72c.072-1.224.12-2.496.144-3.768zm-6.36 7.728h-5.616v2.832h2.736v6.432c-1.032.48-2.208 1.392-3.336 2.64l2.112 2.904c.864-1.488 1.872-3.144 2.592-3.144.528 0 1.392.792 2.472 1.416 1.824 1.008 3.864 1.296 7.032 1.296 2.568 0 6.576-.168 8.328-.264.024-.864.528-2.376.864-3.216-2.472.384-6.48.624-9.072.624-2.784 0-5.04-.144-6.672-1.152-.6-.312-1.056-.624-1.44-.888zm23.904-.936h4.2V16.2h-4.2zm7.104 0h4.248V16.2H74.44zm-7.104-3.888h4.2v1.728h-4.2zm7.104 0h4.248v1.728H74.44zm.912 10.848v8.472h3v-7.632c1.248.84 2.64 1.488 4.08 1.968.432-.768 1.296-1.896 1.92-2.472-2.52-.624-4.92-1.8-6.6-3.24h3.936V8.256H64.48v10.272h3.816c-1.704 1.488-4.08 2.736-6.504 3.432.624.576 1.488 1.656 1.896 2.352a19.7 19.7 0 0 0 4.368-2.232v.84c0 1.56-.504 3.6-4.512 4.872.648.576 1.584 1.656 1.968 2.352 4.824-1.752 5.496-4.8 5.496-7.104v-1.656h-2.016c1.104-.864 2.088-1.824 2.88-2.856h2.472c.792 1.08 1.752 2.04 2.832 2.904zm9.552 6.408h3.6l1.248-4.56h5.736l1.248 4.56h3.744l-5.688-17.784h-4.2zm5.616-7.32.528-1.944c.528-1.848 1.032-3.864 1.512-5.808h.096c.528 1.896 1.008 3.96 1.56 5.808l.528 1.944zm12.048 7.32h3.552V10.056h-3.552zm15.144.336c2.328 0 4.224-.912 5.688-2.616l-1.896-2.208c-.936 1.032-2.112 1.752-3.648 1.752-2.808 0-4.608-2.328-4.608-6.192 0-3.816 1.992-6.12 4.68-6.12 1.344 0 2.376.624 3.288 1.488l1.848-2.256c-1.152-1.2-2.928-2.28-5.208-2.28-4.488 0-8.256 3.432-8.256 9.288 0 5.928 3.648 9.144 8.112 9.144m8.52-.336h3.552v-7.68h6.72v7.68h3.528V10.056h-3.528v7.032h-6.72v-7.032h-3.552zm15.888 0h3.6l1.248-4.56h5.736l1.248 4.56h3.744l-5.688-17.784h-4.2zm5.616-7.32.528-1.944c.528-1.848 1.032-3.864 1.512-5.808h.096c.528 1.896 1.008 3.96 1.56 5.808l.528 1.944zm15.576 7.32h3.552V13.032h5.016v-2.976h-13.56v2.976h4.992z"/><defs><linearGradient id="a" x1="16.018" x2="24.001" y1="17.659" y2="17.659" gradientUnits="userSpaceOnUse"><stop offset="0" stop-color="#2AF598"/><stop offset="1" stop-color="#009EFD"/></linearGradient><linearGradient id="b" x1="17.484" x2="21.997" y1="21.108" y2="21.108" gradientUnits="userSpaceOnUse"><stop offset="0" stop-color="#2AF598"/><stop offset="1" stop-color="#009EFD"/></linearGradient><linearGradient id="c" x1="11.296" x2="19.396" y1="23.009" y2="23.009" gradientUnits="userSpaceOnUse"><stop offset="0" stop-color="#2AF598"/><stop offset="1" stop-color="#009EFD"/></linearGradient><linearGradient id="d" x1="7.121" x2="16.662" y1="22.74" y2="22.74" gradientUnits="userSpaceOnUse"><stop offset="0" stop-color="#2AF598"/><stop offset="1" stop-color="#009EFD"/></linearGradient><linearGradient id="e" x1="6" x2="13.983" y1="18.345" y2="18.345" gradientUnits="userSpaceOnUse"><stop offset="0" stop-color="#2AF598"/><stop offset="1" stop-color="#009EFD"/></linearGradient><linearGradient id="f" x1="8.003" x2="12.516" y1="14.889" y2="14.889" gradientUnits="userSpaceOnUse"><stop offset="0" stop-color="#2AF598"/><stop offset="1" stop-color="#009EFD"/></linearGradient><linearGradient id="g" x1="10.607" x2="18.707" y1="12.991" y2="12.991" gradientUnits="userSpaceOnUse"><stop offset="0" stop-color="#2AF598"/><stop offset="1" stop-color="#009EFD"/></linearGradient><linearGradient id="h" x1="13.339" x2="22.88" y1="13.257" y2="13.257" gradientUnits="userSpaceOnUse"><stop offset="0" stop-color="#2AF598"/><stop offset="1" stop-color="#009EFD"/></linearGradient></defs></svg>