<svg xmlns="http://www.w3.org/2000/svg" xmlns:xlink="http://www.w3.org/1999/xlink" width="15" height="15" viewBox="0 0 15 15" fill="none">
<path d="M6.34602 6.34602L6.34602 1.15398C6.34602 0.51687 6.86289 0 7.5 0C8.13711 0 8.65398 0.51687 8.65398 1.15398L8.65398 6.34602L13.846 6.34602C14.4831 6.34602 15 6.86289 15 7.5C15 8.13711 14.4831 8.65398 13.846 8.65398L8.65398 8.65398L8.65398 13.846C8.65398 14.4831 8.13711 15 7.5 15C6.86289 15 6.34602 14.4831 6.34602 13.846L6.34602 8.65398L1.15398 8.65398C0.51687 8.65398 0 8.13711 0 7.5C0 6.86289 0.51687 6.34602 1.15398 6.34602L6.34602 6.34602Z"   fill="#1A1A1A" >
</path>
</svg>
