<svg xmlns="http://www.w3.org/2000/svg" width="40" height="40" fill="none"><circle cx="20" cy="20" r="20" fill="#ECEEF4"/><path fill="#C5C4CE" d="M28.364 12.773c-.456-.49-1.171-.675-1.855-.74-.717-.07-1.577-.024-2.502.097-1.856.243-4.098.807-6.254 1.5-2.155.694-4.257 1.53-5.83 2.329-.783.398-1.464.802-1.957 1.188a3.6 3.6 0 0 0-.638.62c-.161.211-.33.513-.328.873.006.948.651 1.619 1.34 2.068.702.46 1.616.805 2.525 1.077.918.274 1.885.486 2.715.659l.297.061c.502.103.752.155.99.085.233-.072.416-.253.78-.615l3.59-3.591a1 1 0 0 1 .273-.174 1 1 0 0 1 .176-.055 1 1 0 0 1 .369-.008 1 1 0 0 1 .384.154 1 1 0 0 1 .142.118 1 1 0 0 1 .224.348.9.9 0 0 1 .062.363 1 1 0 0 1-.021.184 1 1 0 0 1-.056.176 1 1 0 0 1-.174.272l-3.348 3.35c-.37.37-.556.555-.625.795-.07.24-.015.495.1 1.004.437 1.976.818 3.607 1.197 4.707.22.64.47 1.197.786 1.605.328.427.775.75 1.365.776.366.017.673-.151.881-.306.221-.164.429-.384.62-.624.387-.482.792-1.15 1.196-1.923.813-1.55 1.672-3.63 2.4-5.77.726-2.14 1.332-4.37 1.625-6.225.145-.924.217-1.783.176-2.502-.037-.683-.182-1.4-.625-1.876"/></svg>